<svg width="52" height="50" viewBox="0 0 52 50" fill="none" xmlns="http://www.w3.org/2000/svg">
<path d="M10.0597 48.2804C11.39 49.2464 12.9344 49.7127 14.4675 49.7127C16.7748 49.7127 19.0518 48.6565 20.5172 46.6715C20.5214 46.6673 20.5254 46.6629 20.5292 46.6583C20.5327 46.6536 20.5362 46.649 20.5396 46.6444L20.5446 46.6371C20.5482 46.6322 20.5515 46.6273 20.5548 46.6227L25.7404 39.492L30.926 46.6227C30.9311 46.6304 30.9364 46.6364 30.9415 46.643C30.9439 46.6461 30.9461 46.6492 30.9486 46.6528C33.3911 49.9796 38.0844 50.7126 41.4249 48.2841C44.7692 45.856 45.517 41.1609 43.1045 37.808L43.0992 37.7996C43.0948 37.7925 43.0912 37.7872 43.0857 37.7817L37.9114 30.6469L46.2948 27.918C50.2328 26.6362 52.3972 22.3848 51.1158 18.4453C49.8346 14.5059 45.5884 12.3407 41.6466 13.6188L33.2634 16.3366L33.2596 7.51422C33.2556 3.37179 29.885 0 25.7442 0C21.6033 0 18.2327 3.37179 18.2289 7.51798L18.2214 16.3328L9.83808 13.615C9.83476 13.615 9.83072 13.6143 9.82665 13.6132C9.82137 13.6117 9.81596 13.6096 9.81174 13.6075C5.87748 12.3445 1.64636 14.5097 0.368761 18.4417C-0.908858 22.3736 1.24056 26.6099 5.15977 27.903C5.16339 27.9041 5.16664 27.9054 5.16975 27.9068L5.18356 27.9121L5.18986 27.9143L13.5694 30.6432L8.39509 37.7779C8.39321 37.7817 8.39043 37.7854 8.38762 37.7892C8.38477 37.7929 8.38199 37.7967 8.38011 37.8005C5.9639 41.1534 6.71545 45.8522 10.0597 48.2804Z" fill="#2F80ED" fill-opacity="0.4"/>
</svg>
