<svg width="33" height="31" viewBox="0 0 33 31" fill="none" xmlns="http://www.w3.org/2000/svg">
<path d="M22.2704 7.5078C18.475 7.7033 17.4338 4.3756 14.2362 3.59651C10.8308 2.76644 9.29386 4.83163 8.92993 6.52016C8.64939 7.8218 8.05973 8.3868 6.50562 8.74872C5.39793 8.95194 4.41641 9.52759 4.67349 11.1066C4.93059 12.6855 4.40948 13.6283 3.63375 14.1932C2.85803 14.7581 2.1343 15.5601 1.87976 16.6049C1.44862 18.3734 2.32506 20.2258 3.94038 21.0471C5.75556 21.9504 6.73043 22.9393 6.60294 24.9901C6.57107 25.5027 6.78497 28.2297 9.38025 27.4054C10.0357 27.1973 12.7473 25.7933 14.3928 28.399C14.8025 29.0478 15.8171 29.6863 16.7442 29.9125C19.2304 30.5184 21.7722 28.6856 22.0246 26.162C22.2984 24.2947 22.6381 23.4191 24.6567 24.0713C26.6539 24.7166 27.8492 21.9367 26.7316 20.5105C25.1806 18.9032 27.0314 16.0125 27.6191 13.6005C28.4225 10.3036 25.5833 7.14874 22.2704 7.5078Z" fill="#F2C94C"/>
<path fill-rule="evenodd" clip-rule="evenodd" d="M11.7352 16.8622L28.6247 0L32.1179 3.49893L11.7352 23.8487L0 12.1324L3.4933 8.63355L11.7352 16.8622Z" fill="#BB6BD9"/>
</svg>
