<svg width="68" height="74" viewBox="0 0 68 74" fill="none" xmlns="http://www.w3.org/2000/svg">
<g opacity="0.7" clip-path="url(#clip0_52_270)">
<path d="M27.3542 48.5059C27.0473 49.3786 26.091 49.8373 25.2183 49.5304C24.3455 49.2235 23.8868 48.2672 24.1937 47.3945C24.5006 46.5218 25.4569 46.0631 26.3296 46.37C27.2024 46.6769 27.661 47.6333 27.3542 48.5059ZM29.3034 66.3661C28.5333 66.0953 27.6895 66.5001 27.4187 67.2702C27.1479 68.0403 27.5527 68.8841 28.3228 69.1549C29.0929 69.4257 29.9367 69.0209 30.2075 68.2508C30.4783 67.4807 30.0735 66.6369 29.3034 66.3661ZM1.21856 48.4421C0.448468 48.1713 -0.395319 48.5761 -0.666123 49.3462C-0.936927 50.1163 -0.532185 50.96 0.23791 51.2308C1.00801 51.5016 1.85179 51.0969 2.12259 50.3268C2.3934 49.5567 1.98866 48.7129 1.21856 48.4421Z" fill="#FFB636"/>
<path d="M7.55415 59.6515C7.19962 60.6596 6.09485 61.1896 5.08667 60.8351C4.07848 60.4805 3.54855 59.3757 3.90308 58.3676C4.25761 57.3594 5.36238 56.8295 6.37057 57.184C7.3789 57.5384 7.90872 58.6432 7.55415 59.6515ZM45.4161 42.951C44.9897 42.0332 44.2158 41.2438 43.2368 40.728C42.6659 40.4269 41.9563 40.6459 41.6547 41.2183C41.3531 41.7907 41.5726 42.499 42.145 42.8005C42.6653 43.0746 43.0832 43.4892 43.2917 43.9379C43.3851 44.1391 43.516 44.5254 43.3434 44.8532C43.1707 45.1811 42.778 45.2915 42.5593 45.3281C42.0711 45.4101 41.4931 45.2996 40.9727 45.0256C38.8461 43.9057 36.363 44.4222 35.4375 46.1783C34.5122 47.9344 35.4897 50.2748 37.6165 51.3954C37.6276 51.4012 37.6393 51.4048 37.6505 51.4103C38.6779 51.9672 39.0911 52.924 38.8168 53.4446C38.6441 53.7723 38.2514 53.8828 38.0327 53.9195C37.5445 54.0013 36.9664 53.8913 36.4461 53.6169C34.3197 52.4968 31.8364 53.0136 30.9109 54.7697C29.9856 56.5258 30.9631 58.8662 33.0899 59.9868C33.1418 60.014 33.1947 60.0371 33.2487 60.056C33.7873 60.2454 34.3978 60.0168 34.6721 59.4964C34.9735 58.9242 34.7541 58.2159 34.1818 57.9143C33.1301 57.3602 32.7061 56.3877 32.9833 55.8617C33.2606 55.3354 34.3024 55.1344 35.3541 55.6894C35.5884 55.8128 35.8291 55.9177 36.0734 56.0037C36.8492 56.2764 37.6608 56.3571 38.4199 56.2297C39.5194 56.0454 40.4194 55.4283 40.8892 54.5365C41.8145 52.7804 40.837 50.44 38.7102 49.3194C38.6962 49.3121 38.6819 49.3064 38.6676 49.2996C37.6467 48.742 37.2364 47.7893 37.5098 47.2703C37.7871 46.744 38.829 46.5433 39.8806 47.098C40.115 47.2214 40.3556 47.3264 40.5999 47.4123C41.3758 47.6851 42.1873 47.7657 42.9464 47.6384C44.0459 47.454 44.9459 46.8369 45.4157 45.9451C45.8856 45.0532 45.8857 43.962 45.4161 42.951Z" fill="#BEA4FF"/>
<path d="M24.6435 60.2979C24.289 61.306 23.1842 61.836 22.176 61.4814C21.1678 61.1269 20.6379 60.0221 20.9924 59.014C21.347 58.0058 22.4517 57.4758 23.4599 57.8304C24.4681 58.1848 24.9981 59.2896 24.6435 60.2979ZM12.2431 35.1043C11.7762 34.1647 10.9544 33.3683 9.92874 32.8619C9.91438 32.8548 9.89964 32.8495 9.88519 32.843C8.96727 32.3705 8.52951 31.5269 8.75311 31.0742C9.08144 30.4093 8.80859 29.6042 8.14387 29.2759C7.47948 28.9485 6.67391 29.2204 6.34562 29.8852C5.40932 31.7812 6.4601 34.1477 8.738 35.2728C8.75075 35.2791 8.76384 35.2833 8.77664 35.2891C9.25364 35.5335 9.63971 35.8991 9.83836 36.299C9.92288 36.4691 10.0451 36.7945 9.91371 37.0606C9.78241 37.3266 9.44972 37.4272 9.26321 37.4635C8.81348 37.551 8.27216 37.4614 7.77777 37.2171C6.75204 36.7103 5.62023 36.5419 4.59035 36.7424C3.44327 36.9656 2.51562 37.6398 2.04536 38.5918C1.10891 40.4879 2.15973 42.8544 4.43759 43.9796C4.4872 44.004 4.53746 44.0252 4.58836 44.0431C5.21973 44.2651 5.93204 43.9856 6.23581 43.3704C6.56425 42.7057 6.2914 41.9005 5.62669 41.5722C4.6795 41.1044 4.22566 40.2406 4.4527 39.7809C4.58414 39.5149 4.91672 39.4142 5.10335 39.378C5.55297 39.2905 6.09451 39.3802 6.58868 39.6244C6.79024 39.7241 6.99585 39.8104 7.20405 39.8836C8.05523 40.183 8.94863 40.2603 9.7761 40.0991C10.9233 39.8759 11.8508 39.2017 12.3211 38.2496C12.7914 37.2974 12.763 36.151 12.2431 35.1043ZM40.7193 74.1776C41.439 73.9998 41.8783 73.2721 41.7003 72.5521C39.7318 64.5873 44.5904 61.1694 47.4931 59.1273C47.8462 58.879 48.1796 58.6443 48.4605 58.4275C49.0475 57.9745 49.1563 57.1315 48.7032 56.5445C48.2501 55.9574 47.4072 55.8488 46.8202 56.3018C46.5861 56.4824 46.2904 56.6903 45.948 56.9312C42.9412 59.0466 36.6843 63.4483 39.0936 73.1964C39.147 73.4129 39.2535 73.6127 39.4035 73.7777C39.5535 73.9427 39.7423 74.0676 39.9528 74.1413C40.1992 74.2281 40.4657 74.2407 40.7193 74.1776Z" fill="#FF6E83"/>
<path d="M24.4273 41.56C24.1816 42.2585 23.4164 42.6256 22.7179 42.38C22.0194 42.1343 21.6523 41.3691 21.8979 40.6706C22.1436 39.9721 22.9088 39.605 23.6073 39.8507C24.3058 40.0963 24.6729 40.8615 24.4273 41.56ZM52.1369 48.9131C51.4588 48.6746 50.7159 49.0311 50.4775 49.709C50.2391 50.387 50.5954 51.13 51.2735 51.3684C51.9515 51.6068 52.6944 51.2504 52.9328 50.5724C53.1712 49.8945 52.8148 49.1515 52.1369 48.9131ZM10.4048 55.0903C10.6681 54.9508 10.9784 54.7992 11.3071 54.6388C12.9745 53.8243 15.2581 52.709 16.8076 50.6302C18.6689 48.133 18.9659 44.8879 17.6901 40.9849C17.4687 40.3073 16.7399 39.938 16.0627 40.1593C15.3854 40.3808 15.0158 41.1093 15.2371 41.7867C16.2512 44.8889 16.0881 47.2772 14.7385 49.0879C13.5632 50.6646 11.6842 51.5825 10.1745 52.3199C9.82653 52.4899 9.49789 52.6504 9.19736 52.8094C8.56759 53.1429 8.32735 53.9238 8.66073 54.5535C8.81212 54.8406 9.0665 55.0597 9.3728 55.167C9.54075 55.2263 9.7192 55.2502 9.89684 55.237C10.0745 55.2238 10.2474 55.1738 10.4048 55.0903Z" fill="#59CAFC"/>
</g>
<defs>
<clipPath id="clip0_52_270">
<rect width="61.2122" height="61.2122" fill="white" transform="translate(9.3064) rotate(19.3742)"/>
</clipPath>
</defs>
</svg>
