<svg width="71" height="71" viewBox="0 0 71 71" fill="none" xmlns="http://www.w3.org/2000/svg">
<g clip-path="url(#clip0_32_13772)">
<path fill-rule="evenodd" clip-rule="evenodd" d="M11.36 59.936C7.92837 59.7585 8.40171 60.9418 4.31921 41.3606C3.78671 38.8756 3.25421 37.4852 2.84004 35.6215C2.75169 35.2176 2.82647 34.7951 3.04809 34.446C3.26971 34.097 3.62024 33.8496 4.02337 33.7577C6.98171 33.1069 8.16504 32.5152 12.218 31.3319C12.375 31.3576 12.536 31.3446 12.6869 31.2939C12.8377 31.2432 12.9739 31.1564 13.0836 31.041C13.1932 30.9257 13.273 30.7853 13.3159 30.632C13.3589 30.4788 13.3637 30.3173 13.33 30.1618C13.2963 30.0062 13.2251 29.8613 13.1226 29.7396C13.02 29.6178 12.8893 29.523 12.7417 29.4634C12.5942 29.4037 12.4343 29.3811 12.2759 29.3974C12.1176 29.4137 11.9657 29.4684 11.8334 29.5569C-4.02329 30.8881 -0.295793 31.184 2.48504 48.6677C2.89921 51.3302 4.34879 58.8148 6.89296 61.3885C8.78629 63.2523 14.0521 62.069 16.9217 61.5661C17.1187 61.557 17.3071 61.4826 17.4571 61.3545C17.6071 61.2265 17.7102 61.0521 17.75 60.859C17.7786 60.7314 17.7786 60.5991 17.75 60.4715C17.4542 59.1402 15.8863 60.1431 11.36 59.936ZM33.3967 15.5669C33.87 14.6794 35.1421 11.4844 34.2546 10.9815C32.4204 9.53193 30.4088 14.354 30.0538 17.194C29.6396 18.5844 30.8821 19.1761 32.1246 18.5844C32.6019 17.6023 33.0259 16.5964 33.3967 15.5669ZM70.4291 21.454C68.3582 18.1998 64.5124 17.5786 61.1695 16.129C54.5132 13.3778 48.5108 12.3719 41.9137 10.2123C41.5291 10.2123 35.642 7.66818 34.8137 8.96985C34.6922 9.16209 34.6519 9.39473 34.7019 9.61663C34.7518 9.83853 34.8878 10.0315 35.08 10.1532C35.8491 10.6561 34.4883 9.62068 41.2037 12.1648C47.1204 14.4723 54.25 16.3953 59.8708 18.9986C61.6162 19.7973 63.5983 20.3594 65.2845 21.2173C68.9825 23.0811 67.5625 24.1757 67.0004 27.3707C66.3125 31.2772 65.3234 35.1246 64.042 38.8786C63.4395 42.2201 62.5588 45.5054 61.4091 48.7003H60.7583C59.3679 49.144 59.782 50.7977 60.7583 50.7681C63.7166 51.0048 63.7166 49.8215 66.675 39.7336C68.224 35.895 69.4606 31.9377 70.3729 27.9002C70.4616 26.4211 71.7041 23.6402 70.432 21.454" fill="#0C6FFF"/>
<path fill-rule="evenodd" clip-rule="evenodd" d="M60.6104 26.6013C59.5454 21.2763 52.4158 21.6905 48.0966 20.9509C42.6829 20.0043 26.9149 19.2943 25.4949 19.1759C23.723 18.8222 21.9206 18.6438 20.1137 18.6434C17.8358 18.8801 17.7175 18.7913 17.5104 19.383C16.8892 21.2172 19.6996 20.2409 21.6817 20.448C22.8946 20.448 24.2258 20.8622 25.2908 21.0101C32.7754 21.8976 40.3783 21.9272 47.6262 23.3768C51.2058 24.1163 55.2558 23.9388 57.4154 26.128C58.5987 27.3409 57.2379 42.0438 57.0604 43.7301C55.9165 41.9308 54.1517 40.6144 52.101 40.0308C50.0504 39.4472 47.8568 39.6372 45.937 40.5647C43.1813 42.0389 40.6591 43.9131 38.4524 46.1263C37.062 40.8901 35.1687 36.0384 29.9916 34.293C28.8197 33.9797 27.5916 33.9394 26.4017 34.1754C25.2118 34.4113 24.0919 34.9171 23.1283 35.6538C19.9113 38.2296 17.314 41.4951 15.5283 45.2093C15.8537 27.7847 19.0192 21.8384 17.1258 21.5426C15.2325 21.2468 15.6467 22.8739 15.4396 24.7376C14.2511 31.2193 13.4803 37.7708 13.1321 44.3513C12.8362 54.8209 12.57 56.1817 24.2258 57.9567C33.657 58.9685 43.1355 59.501 52.6229 59.5542C58.5395 59.5542 58.5395 57.3651 58.7762 53.9038C58.7762 53.8446 61.6162 31.5418 60.6104 26.6013ZM17.7471 53.6938C16.6525 53.3092 15.765 53.6938 15.5579 48.99C17.8104 44.8177 20.9756 41.2076 24.8175 38.4288C25.4171 37.9858 26.1078 37.6816 26.8394 37.5384C27.5711 37.3951 28.3254 37.4163 29.0479 37.6004C30.7244 38.1904 32.1388 39.3533 33.0417 40.8842C35.3818 45.8385 37.4556 50.9144 39.2542 56.09C34.2842 55.8533 22.4508 55.3504 17.7471 53.6938ZM56.587 53.4275L56.3504 55.7646C51.3981 56.4273 46.3926 56.5633 41.4108 56.1788C41.4108 55.6463 39.4583 49.345 39.192 48.3096C42.7716 46.0613 46.8245 42.8071 50.7591 43.1917C51.9842 43.4011 53.1324 43.9298 54.0881 44.7245C55.0437 45.5191 55.773 46.5516 56.2024 47.7179C56.9716 49.2858 56.8237 48.1617 56.6166 53.4275H56.587Z" fill="#020202"/>
<path fill-rule="evenodd" clip-rule="evenodd" d="M48.5995 36.216C49.3045 35.7965 49.8883 35.201 50.2938 34.4879C50.6993 33.7748 50.9125 32.9686 50.9125 32.1483C50.9125 31.3279 50.6993 30.5217 50.2938 29.8086C49.8883 29.0955 49.3045 28.5 48.5995 28.0805C39.547 21.2764 33.8079 33.1393 41.0558 36.9555C42.2867 37.4139 43.6059 37.5855 44.9131 37.4574C46.2203 37.3292 47.4811 36.9046 48.5995 36.216ZM42.6829 28.2876C44.3395 27.6368 47.6233 29.7668 47.9783 31.6897C48.3333 33.6126 44.1029 34.648 42.387 33.9085C41.8048 33.6768 41.3111 33.2662 40.9772 32.7359C40.6434 32.2056 40.4865 31.583 40.5293 30.9578C40.5721 30.3326 40.8123 29.7371 41.2153 29.2572C41.6183 28.7774 42.1632 28.4378 42.7716 28.2876H42.6829Z" fill="#020202"/>
</g>
<defs>
<clipPath id="clip0_32_13772">
<rect width="71" height="71" fill="white"/>
</clipPath>
</defs>
</svg>
